<svg width="258" height="29" viewBox="0 0 258 29" fill="none" xmlns="http://www.w3.org/2000/svg">
<path d="M34.61 27.4129H35.2357V27.8023H26.7494V27.4518H27.3361C27.7793 27.4518 28.1573 27.2831 28.4702 26.9456C28.783 26.5822 28.9134 26.1928 28.8612 25.7775L27.1014 6.19127L18.8889 24.3757C18.1589 25.9592 17.7156 27.2831 17.5592 28.3474H17.1681L7.15665 6.73641L5.47503 25.7775C5.42289 26.1928 5.55325 26.5822 5.86611 26.9456C6.17897 27.2831 6.54397 27.4518 6.96111 27.4518H7.58683V27.8023H0V27.4129H0.625718C1.35572 27.4129 1.98144 27.1922 2.50287 26.7509C3.05038 26.3096 3.37627 25.7126 3.48056 24.9598L6.41361 0H6.80468L17.7156 23.4801L28.392 0H28.7439L31.7552 24.9598C31.8855 25.9981 32.407 26.725 33.3195 27.1403C33.7106 27.322 34.1407 27.4129 34.61 27.4129ZM45.1259 5.45143C47.1335 4.41306 49.3365 3.89388 51.7351 3.89388C54.1599 3.89388 56.376 4.41306 58.3835 5.45143C60.391 6.46384 61.9814 7.90457 63.1546 9.77364C64.3539 11.6427 64.9535 13.7584 64.9535 16.1207C64.9535 18.4829 64.3539 20.5986 63.1546 22.4677C61.9814 24.3367 60.391 25.7904 58.3835 26.8288C56.376 27.8412 54.3163 28.3474 52.2044 28.3474C50.0926 28.3474 48.2285 28.0489 46.612 27.4518C44.9956 26.8548 43.5877 26.0241 42.3884 24.9598C41.2152 23.8954 40.2766 22.5975 39.5727 21.0659C38.8948 19.5343 38.5559 17.7431 38.5559 15.6923C38.5559 13.6156 39.1425 11.6427 40.3157 9.77364C41.515 7.90457 43.1184 6.46384 45.1259 5.45143ZM44.3829 24.1031C46.3643 26.1539 48.8151 27.1793 51.7351 27.1793C54.6553 27.1793 57.106 26.1539 59.0874 24.1031C61.0689 22.0264 62.0596 19.3656 62.0596 16.1207C62.0596 12.8758 61.0689 10.2279 59.0874 8.17715C57.106 6.10041 54.6553 5.06204 51.7351 5.06204C48.8151 5.06204 46.3643 6.10041 44.3829 8.17715C42.4275 10.2279 41.4498 12.8758 41.4498 16.1207C41.4498 19.3656 42.4275 22.0264 44.3829 24.1031ZM76.5847 5.45143C78.5922 4.41306 80.7953 3.89388 83.1939 3.89388C85.6185 3.89388 87.8346 4.41306 89.8421 5.45143C91.8496 6.46384 93.44 7.90457 94.6132 9.77364C95.8125 11.6427 96.4122 13.7584 96.4122 16.1207C96.4122 18.4829 95.8125 20.5986 94.6132 22.4677C93.44 24.3367 91.8496 25.7904 89.8421 26.8288C87.8346 27.8412 85.775 28.3474 83.6632 28.3474C81.5514 28.3474 79.6872 28.0489 78.0708 27.4518C76.4544 26.8548 75.0465 26.0241 73.8467 24.9598C72.674 23.8954 71.7354 22.5975 71.0315 21.0659C70.3531 19.5343 70.0141 17.7431 70.0141 15.6923C70.0141 13.6156 70.6008 11.6427 71.7745 9.77364C72.9733 7.90457 74.5772 6.46384 76.5847 5.45143ZM75.8417 24.1031C77.8231 26.1539 80.2739 27.1793 83.1939 27.1793C86.1139 27.1793 88.5646 26.1539 90.5461 24.1031C92.5275 22.0264 93.5182 19.3656 93.5182 16.1207C93.5182 12.8758 92.5275 10.2279 90.5461 8.17715C88.5646 6.10041 86.1139 5.06204 83.1939 5.06204C80.2739 5.06204 77.8231 6.10041 75.8417 8.17715C73.8863 10.2279 72.9086 12.8758 72.9086 16.1207C72.9086 19.3656 73.8863 22.0264 75.8417 24.1031ZM127.758 4.82841C127.184 4.82841 126.689 5.0231 126.272 5.41249C125.855 5.77592 125.633 6.23021 125.607 6.77535V23.3633C125.607 24.8689 125.698 26.2967 125.881 27.6465L125.959 28.3474H125.607L105.271 9.15061V25.3881C105.271 25.9592 105.48 26.4394 105.897 26.8288C106.314 27.2182 106.822 27.4129 107.422 27.4129H108.087V27.8023H100.696V27.4129H101.36C101.96 27.4129 102.468 27.2182 102.886 26.8288C103.303 26.4394 103.511 25.9592 103.511 25.3881V8.72229C103.511 7.13878 103.42 5.724 103.237 4.47796L103.159 3.85494L103.589 3.89388L123.886 22.9349V6.77535C123.834 6.23021 123.599 5.77592 123.182 5.41249C122.765 5.0231 122.27 4.82841 121.696 4.82841H121.031V4.43902H128.423V4.82841H127.758ZM152.329 1.75225H149.826V24.9598C149.826 25.6347 150.06 26.2188 150.53 26.712C151.025 27.1793 151.625 27.4129 152.329 27.4129H152.798L152.837 27.8023H144.273V27.4129H144.781C145.459 27.4129 146.032 27.1793 146.502 26.712C146.997 26.2447 147.258 25.6736 147.284 24.9987V3.38767C147.258 2.71274 146.997 2.14163 146.502 1.67437C146.032 1.18114 145.459 0.934531 144.781 0.934531H144.273V0.545144H154.832C157.204 0.545144 159.068 1.2071 160.424 2.53102C161.78 3.82898 162.457 5.52931 162.457 7.632C162.457 9.70874 161.806 11.5129 160.502 13.0445C159.225 14.5501 157.66 15.3029 155.809 15.3029C156.2 15.4847 156.657 15.8481 157.178 16.3932C157.725 16.9124 158.208 17.4576 158.625 18.0287C160.867 21.2216 162.327 23.1945 163.005 23.9474C163.683 24.6742 164.165 25.1804 164.452 25.466C164.739 25.7256 165.052 25.9851 165.391 26.2447C165.729 26.5043 166.068 26.712 166.407 26.8678C167.163 27.2312 167.972 27.4129 168.832 27.4129V27.8023H166.681C165.56 27.8023 164.517 27.6076 163.552 27.2182C162.588 26.8029 161.858 26.3875 161.362 25.9722C160.893 25.5309 160.476 25.1155 160.111 24.7261C159.772 24.3108 158.807 22.9609 157.217 20.6765C155.627 18.3921 154.701 17.0941 154.44 16.7826C154.18 16.4451 153.906 16.1207 153.619 15.8091C152.785 14.9265 151.951 14.4852 151.116 14.4852V14.0958C151.325 14.1218 151.599 14.1348 151.938 14.1348C152.277 14.1348 152.694 14.1218 153.189 14.0958C156.422 14.018 158.455 12.6681 159.29 10.0462C159.446 9.52702 159.524 9.04678 159.524 8.60547C159.524 8.13821 159.524 7.83967 159.524 7.70988C159.472 5.97061 159.016 4.56882 158.156 3.50449C157.295 2.44016 156.135 1.86906 154.675 1.79118C154.049 1.76522 153.267 1.75225 152.329 1.75225ZM171.08 27.4129C171.784 27.4129 172.397 27.2052 172.918 26.7899C173.44 26.3745 173.7 25.8813 173.7 25.3102V6.9311C173.7 6.36 173.44 5.86678 172.918 5.45143C172.397 5.03608 171.771 4.82841 171.041 4.82841H170.533V4.43902H179.371V4.82841H178.862C178.159 4.82841 177.546 5.0231 177.024 5.41249C176.529 5.80188 176.255 6.28212 176.203 6.85323V25.3491C176.229 25.9202 176.503 26.4135 177.024 26.8288C177.546 27.2182 178.159 27.4129 178.862 27.4129H179.371L179.41 27.8023H170.533V27.4129H171.08ZM208.855 4.82841H208.542C207.969 4.82841 207.408 5.0231 206.861 5.41249C206.313 5.77592 205.844 6.33404 205.453 7.08686C199.769 19.2358 196.81 25.5958 196.575 26.1669C196.132 27.2571 195.898 27.984 195.871 28.3474H195.519L185.86 7.1258C185.104 5.59421 184.1 4.82841 182.849 4.82841H182.536V4.43902H190.553V4.82841H190.24C189.745 4.82841 189.367 5.01012 189.106 5.37355C188.871 5.71102 188.754 6.02253 188.754 6.30808C188.754 6.59363 188.793 6.89216 188.871 7.20367L195.871 24.181L203.067 7.28155C203.198 6.94408 203.263 6.63257 203.263 6.34702C203.263 6.03551 203.132 5.71102 202.872 5.37355C202.611 5.01012 202.22 4.82841 201.698 4.82841H201.425V4.43902H208.855V4.82841ZM212.496 27.4129C213.122 27.4129 213.643 27.2182 214.06 26.8288C214.503 26.4135 214.738 25.9202 214.764 25.3491V6.85323C214.764 6.28212 214.543 5.80188 214.099 5.41249C213.656 5.0231 213.122 4.82841 212.496 4.82841H211.948V4.43902H223.368C224.437 4.43902 225.375 4.36114 226.183 4.20539C226.992 4.04963 227.513 3.91984 227.748 3.816V8.25502L227.318 8.21608V7.632C227.318 7.08686 227.135 6.61959 226.77 6.2302C226.405 5.84082 225.936 5.64612 225.362 5.64612H217.228V15.5366H223.915C224.437 15.5366 224.828 15.3808 225.088 15.0693C225.375 14.7578 225.519 14.3684 225.519 13.9011V13.3949H225.949V18.8464H225.519V18.3402C225.519 17.6133 225.245 17.1201 224.697 16.8605C224.489 16.7826 224.267 16.7307 224.033 16.7047H217.228V26.5952H223.368C224.567 26.5952 225.571 26.3875 226.379 25.9722C227.213 25.5568 227.839 25.0636 228.256 24.4925C228.699 23.9214 229.143 23.1686 229.586 22.234H229.977L227.826 27.8023H211.948V27.4129H212.496ZM241.401 5.64612H239.328V25.3102C239.355 26.1149 239.719 26.725 240.423 27.1403C240.762 27.322 241.14 27.4129 241.558 27.4129H242.066L242.105 27.8023H234.088V27.4129H234.636C235.235 27.4129 235.744 27.2182 236.161 26.8288C236.604 26.4135 236.826 25.9202 236.826 25.3491V6.85323C236.826 6.28212 236.604 5.80188 236.161 5.41249C235.744 5.0231 235.235 4.82841 234.636 4.82841H234.088V4.43902H243.904C246.355 4.43902 248.284 4.99714 249.692 6.11339C251.126 7.22963 251.843 8.69633 251.843 10.5135C251.843 12.3306 251.269 13.8492 250.122 15.0693C248.975 16.2894 247.515 16.9903 245.742 17.172C246.576 17.5354 247.58 18.5478 248.753 20.2092C248.727 20.2092 249.17 20.7803 250.083 21.9225C251.022 23.0647 251.765 23.9603 252.312 24.6093C252.886 25.2323 253.355 25.7126 253.72 26.05C254.685 26.9586 255.793 27.4129 257.044 27.4129V27.8023H255.832C253.772 27.8023 252.156 27.3999 250.982 26.5952C250.096 25.9981 249.288 25.2583 248.558 24.3757C248.401 24.168 247.737 23.2594 246.563 21.65C245.416 20.0145 244.803 19.1449 244.725 19.0411C243.317 17.3018 242.001 16.4322 240.775 16.4322V16.0428C243.826 16.0428 245.664 15.887 246.29 15.5755C247.15 15.1342 247.737 14.6669 248.049 14.1737C248.701 13.1353 249.027 11.9931 249.027 10.7471C249.027 9.16359 248.558 7.94351 247.619 7.08686C246.681 6.2302 245.416 5.76294 243.826 5.68506C243.122 5.6591 242.314 5.64612 241.401 5.64612Z" fill="white"/>
</svg>
